<svg width="67" height="30" viewBox="0 0 67 30" fill="none" xmlns="http://www.w3.org/2000/svg">
<path d="M0.832813 30V0.90909H8.73054V12.6705H9.12827L17.8783 0.90909H27.0828L17.2533 13.8636L27.3101 30H17.8783L11.3442 19.0909L8.73054 22.5V30H0.832813ZM38.5243 0.90909V30H30.6266V0.90909H38.5243ZM43.4672 30V0.90909H56.024C58.1831 0.90909 60.0723 1.33523 61.6916 2.1875C63.3109 3.03977 64.5704 4.23769 65.47 5.78125C66.3697 7.32481 66.8195 9.12879 66.8195 11.1932C66.8195 13.2765 66.3555 15.0805 65.4274 16.6051C64.5089 18.1297 63.2162 19.304 61.5496 20.1278C59.8924 20.9517 57.9558 21.3636 55.7399 21.3636H48.2399V15.2273H54.149C55.077 15.2273 55.8678 15.0663 56.5212 14.7443C57.1841 14.4129 57.6907 13.9441 58.0411 13.3381C58.4009 12.732 58.5808 12.017 58.5808 11.1932C58.5808 10.3598 58.4009 9.64962 58.0411 9.0625C57.6907 8.46591 57.1841 8.01136 56.5212 7.69886C55.8678 7.37689 55.077 7.21591 54.149 7.21591H51.3649V30H43.4672Z" fill="#DDDDDD"/>
</svg>
