<svg width="30" height="30" viewBox="0 0 30 30" fill="none" xmlns="http://www.w3.org/2000/svg">
<path d="M20 16.125V21.375C20 25.75 18.25 27.5 13.875 27.5H8.625C4.25 27.5 2.5 25.75 2.5 21.375V16.125C2.5 11.75 4.25 10 8.625 10H13.875C18.25 10 20 11.75 20 16.125Z" fill="#01F7FF"/>
<path d="M21.3742 2.5H16.1242C12.1739 2.5 10.3738 3.9369 10.0608 7.42556C10.011 7.98025 10.4667 8.4375 11.0236 8.4375H13.8742C19.1242 8.4375 21.5617 10.875 21.5617 16.125V18.9756C21.5617 19.5325 22.019 19.9882 22.5737 19.9384C26.0623 19.6254 27.4992 17.8253 27.4992 13.875V8.625C27.4992 4.25 25.7492 2.5 21.3742 2.5Z" fill="#01F7FF"/>
</svg>
