<svg width="30" height="31" viewBox="0 0 30 31" fill="none" xmlns="http://www.w3.org/2000/svg">
<path d="M19 17.0692V22.3192C19 24.4081 18.5761 25.6101 17.871 26.3152C17.1659 27.0203 15.9639 27.4442 13.875 27.4442H8.625C6.53613 27.4442 5.33407 27.0203 4.62898 26.3152C3.9239 25.6101 3.5 24.4081 3.5 22.3192V17.0692C3.5 14.9803 3.9239 13.7783 4.62898 13.0732C5.33407 12.3681 6.53613 11.9442 8.625 11.9442H13.875C15.9639 11.9442 17.1659 12.3681 17.871 13.0732C18.5761 13.7783 19 14.9803 19 17.0692Z" stroke="#01F7FF" stroke-width="2"/>
<path d="M16.1242 4.44421H21.3742C23.4631 4.44421 24.6652 4.86811 25.3702 5.5732C26.0753 6.27828 26.4992 7.48034 26.4992 9.56921V14.8192C26.4992 16.702 26.1513 17.8641 25.5673 18.5859C25.0146 19.269 24.1091 19.7284 22.5617 19.8794V17.0692C22.5617 14.3087 21.9222 12.078 20.3938 10.5496C18.8654 9.02122 16.6347 8.38171 13.8742 8.38171H11.0641C11.215 6.83436 11.6744 5.92887 12.3575 5.37615C13.0793 4.79214 14.2414 4.44421 16.1242 4.44421Z" stroke="#01F7FF" stroke-width="2"/>
</svg>
