<svg width="12" height="12" viewBox="0 0 12 12" fill="none" xmlns="http://www.w3.org/2000/svg">
<path fill-rule="evenodd" clip-rule="evenodd" d="M6 0.625C6.27614 0.625 6.5 0.848858 6.5 1.125V2.375C6.5 2.65114 6.27614 2.875 6 2.875C5.72386 2.875 5.5 2.65114 5.5 2.375V1.125C5.5 0.848858 5.72386 0.625 6 0.625Z" fill="#D9D9D9"/>
<path fill-rule="evenodd" clip-rule="evenodd" d="M6 8.5C6.27614 8.5 6.5 8.72386 6.5 9V11C6.5 11.2761 6.27614 11.5 6 11.5C5.72386 11.5 5.5 11.2761 5.5 11V9C5.5 8.72386 5.72386 8.5 6 8.5Z" fill="#D9D9D9"/>
<path fill-rule="evenodd" clip-rule="evenodd" d="M0.625 6C0.625 5.72386 0.848858 5.5 1.125 5.5H2.875C3.15114 5.5 3.375 5.72386 3.375 6C3.375 6.27614 3.15114 6.5 2.875 6.5H1.125C0.848858 6.5 0.625 6.27614 0.625 6Z" fill="#D9D9D9"/>
<path fill-rule="evenodd" clip-rule="evenodd" d="M9.375 6C9.375 5.72386 9.59886 5.5 9.875 5.5H10.625C10.9011 5.5 11.125 5.72386 11.125 6C11.125 6.27614 10.9011 6.5 10.625 6.5H9.875C9.59886 6.5 9.375 6.27614 9.375 6Z" fill="#D9D9D9"/>
<path fill-rule="evenodd" clip-rule="evenodd" d="M8.52145 8.52145C8.71671 8.32618 9.03329 8.32618 9.22855 8.52145L9.58211 8.875C9.77737 9.07026 9.77737 9.38684 9.58211 9.58211C9.38684 9.77737 9.07026 9.77737 8.875 9.58211L8.52145 9.22855C8.32618 9.03329 8.32618 8.71671 8.52145 8.52145Z" fill="#D9D9D9"/>
<path fill-rule="evenodd" clip-rule="evenodd" d="M9.68566 2.35434C9.88092 2.5496 9.88092 2.86618 9.68566 3.06145L8.97855 3.76855C8.78329 3.96382 8.46671 3.96382 8.27145 3.76855C8.07618 3.57329 8.07618 3.25671 8.27145 3.06145L8.97855 2.35434C9.17382 2.15908 9.4904 2.15908 9.68566 2.35434Z" fill="#D9D9D9"/>
<path fill-rule="evenodd" clip-rule="evenodd" d="M4.22855 7.77145C4.42382 7.96671 4.42382 8.28329 4.22855 8.47855L2.81434 9.89277C2.61908 10.088 2.3025 10.088 2.10723 9.89277C1.91197 9.6975 1.91197 9.38092 2.10723 9.18566L3.52145 7.77145C3.71671 7.57618 4.03329 7.57618 4.22855 7.77145Z" fill="#D9D9D9"/>
<path fill-rule="evenodd" clip-rule="evenodd" d="M2.21079 2.25079C2.40605 2.05552 2.72263 2.05552 2.91789 2.25079L3.97855 3.31145C4.17382 3.50671 4.17382 3.82329 3.97855 4.01855C3.78329 4.21382 3.46671 4.21382 3.27145 4.01855L2.21079 2.95789C2.01552 2.76263 2.01552 2.44605 2.21079 2.25079Z" fill="#D9D9D9"/>
</svg>
