<svg width="26" height="24" viewBox="0 0 26 24" fill="none" xmlns="http://www.w3.org/2000/svg">
<path d="M23.9892 12.7035C24.2944 12.4419 24.4469 12.3111 24.5028 12.1555C24.5519 12.0189 24.5519 11.8695 24.5028 11.7329C24.4469 11.5773 24.2944 11.4465 23.9892 11.185L13.4008 2.10918C12.8755 1.65893 12.6129 1.43381 12.3905 1.42829C12.1972 1.4235 12.0127 1.5084 11.8905 1.65825C11.75 1.83067 11.75 2.17659 11.75 2.86843V8.2375C9.08165 8.70432 6.63949 10.0564 4.82464 12.0865C2.84603 14.2999 1.75154 17.1641 1.75 20.1329V20.8979C3.06168 19.3178 4.69938 18.0399 6.55095 17.1516C8.18337 16.3685 9.94802 15.9046 11.75 15.7824V21.02C11.75 21.7118 11.75 22.0578 11.8905 22.2302C12.0127 22.38 12.1972 22.4649 12.3905 22.4601C12.6129 22.4546 12.8755 22.2295 13.4008 21.7792L23.9892 12.7035Z" stroke="#01F7FF" stroke-width="2" stroke-linecap="round" stroke-linejoin="round"/>
</svg>
